<svg xmlns="http://www.w3.org/2000/svg" viewBox="0 0 800 800">
  <a href="https://minersstudios.com">
    <path fill="rgb(0, 87, 183)" d="M496.63 182.8 409.4 400h-18.78a75472.66 75472.66 0 0 0-87.29-217.2c-8.9-22.05-17.45-43.42-33-57.96-15.7-14.67-37.8-21.58-60.3-21.38-22.25.2-43.85 7.55-60.84 21.38-17.35 14.13-29.05 34.39-32.73 57.96L78.54 400h144.44l4.02-25.36 7.66 25.36h330.69l7.57-25.36 4.1 25.36h144.45L683.5 182.8c-3.72-23.56-15.39-43.8-32.73-57.96-17-13.88-38.59-21.17-60.84-21.38-22.53-.21-44.5 6.7-60.3 21.38-15.3 14.21-23.87 35.25-33 57.96Z"/>
    <path fill="rgb(255, 215, 0)" d="m409.4 400-9.47 23.3-9.32-23.3H78.54l-4.05 23.15c-22.59-3.37-43.2 4.62-56.87 20.4-15.73 18.16-20.18 44.38-14.5 72.3l36.77 180.7a523.02 523.02 0 0 1 74.3-61.23 486.35 486.35 0 0 1 78.34-43.25L222.98 400h11.68l48.54 161.49a487.37 487.37 0 0 1 116.73-13.77c39.34.15 78.55 5.1 117.02 14.73L565.35 400h11.67l30.4 192.07a493.3 493.3 0 0 1 77.63 43.25 534.14 534.14 0 0 1 74.3 61.23l37.47-180.7c5.8-27.9 1.3-54.15-14.5-72.3-13.7-15.76-34.37-23.71-56.98-20.26l-3.87-23.3H409.39Z"/>
  </a>
</svg>
