<svg viewBox="0 0 800 800" xmlns="http://www.w3.org/2000/svg">
    <path d="M473.4809,229.2508 C449.8592,287.7354 424.9591,349.7139 400.7641,410.1066 C376.5932,349.7111 351.7078,287.7002 328.1033,229.2508 C321.4035,212.6608 314.9785,196.5953 303.2816,185.6588 C291.4867,174.6307 274.858,169.4386 257.9339,169.5798 C241.1916,169.7194 224.9165,175.2251 212.1863,185.6588 C199.2315,196.2765 190.6617,211.5539 187.5724,229.2508 L156.0196,410 C139.0279,407.4738 123.5245,413.4873 113.2516,425.3486 C101.4219,439.0075 98.0695,458.7209 102.3412,479.7114 L129.996,615.604 C147.2487,598.5389 165.8966,583.0968 185.8707,569.5589 C204.4424,556.9715 224.1204,546.0537 244.7851,537.0359 L270.72,373.5182 L312.9888,514.0389 C341.8778,507.0401 371.2895,503.5712 400.7658,503.6832 C430.3456,503.7956 459.8323,507.5134 488.7701,514.7573 L530.8642,373.5182 L556.8128,537.0359 C577.2771,546.1061 596.7714,557.0253 615.1903,569.5589 C635.1384,583.1332 653.7814,598.577 671.0649,615.604 L699.243,479.7114 C703.5935,458.7305 700.2089,439.0018 688.3326,425.3486 C678.024,413.4977 662.4896,407.5205 645.4879,410.1066 L614.0118,229.2508 C610.9318,211.5536 602.3567,196.2769 589.3979,185.6588 C576.6659,175.2265 560.3917,169.72 543.6503,169.5798 C526.726,169.4381 510.0972,174.6303 498.3026,185.6588 C486.6061,196.5956 480.1804,212.6636 473.4809,229.2508 Z" fill="rgb(255, 255, 255)" />
</svg>
