<svg xmlns="http://www.w3.org/2000/svg" viewBox="0 0 800 800">
  <a href="https://minersstudios.com">
    <path fill="currentColor" d="M496.63 182.8a93613.76 93613.76 0 0 0-96.7 240.5 84213.88 84213.88 0 0 0-96.61-240.5c-8.91-22.06-17.46-43.42-33.01-57.96-15.68-14.67-37.8-21.57-60.3-21.38-22.26.18-43.9 7.5-60.83 21.38-17.23 14.12-28.62 34.43-32.73 57.96L74.49 423.15c-22.6-3.36-43.2 4.64-56.87 20.4-15.73 18.17-20.19 44.39-14.5 72.3l36.77 180.7a522.93 522.93 0 0 1 74.3-61.23 486.29 486.29 0 0 1 78.34-43.25L227 374.64l56.2 186.85a487.37 487.37 0 0 1 116.73-13.77 489.1 489.1 0 0 1 117.02 14.73l55.97-187.81 34.5 217.43a493.26 493.26 0 0 1 77.63 43.25 534.11 534.11 0 0 1 74.3 61.23l37.47-180.7c5.79-27.9 1.28-54.14-14.5-72.3-13.72-15.75-34.37-23.7-56.98-20.26L683.5 182.8c-4.1-23.53-15.5-43.84-32.73-57.96-16.93-13.87-38.57-21.2-60.84-21.38-22.5-.2-44.61 6.71-60.3 21.38-15.55 14.54-24.1 35.9-33 57.96z"/>
  </a>
</svg>
