<svg viewBox="0 0 800 800" xmlns="http://www.w3.org/2000/svg">
  <path d="m496.62831,182.80289c-31.4104,77.76854 -64.52073,160.18299 -96.69346,240.48878c-32.14069,-80.3095 -65.23147,-162.76706 -96.619,-240.48878c-8.9089,-22.06016 -17.45239,-43.42289 -33.00607,-57.96545c-15.68399,-14.66435 -37.79562,-21.56843 -60.30004,-21.38067c-22.26268,0.18563 -43.90412,7.50671 -60.83181,21.38067c-17.22635,14.11864 -28.62183,34.43341 -32.72976,57.96545l-41.95659,240.34703c-22.59431,-3.35915 -43.2096,4.63715 -56.86975,20.40944c-15.73027,18.1626 -20.18805,44.37603 -14.50785,72.28766l36.77333,180.70001c22.94138,-22.69192 47.73798,-43.22569 74.29808,-61.2274c24.69528,-16.7378 50.86164,-31.25549 78.34005,-43.2467l34.48633,-217.43384l56.20595,186.85412c38.41447,-9.30649 77.52399,-13.91918 116.71941,-13.77025c39.33305,0.14946 78.5423,5.09312 117.02167,14.72553l55.97365,-187.80939l34.50455,217.43384c27.21192,12.06089 53.13402,26.58044 77.62611,43.2467c26.52552,18.0501 51.31561,38.58614 74.29794,61.2274l37.46917,-180.70001c5.78498,-27.89886 1.28438,-54.13264 -14.50785,-72.28766c-13.70762,-15.75845 -34.36412,-23.7065 -56.97174,-20.2677l-41.85461,-240.48878c-4.09556,-23.53244 -15.4981,-43.84628 -32.72976,-57.96545c-16.93008,-13.87211 -38.57032,-21.19425 -60.83181,-21.38067c-22.5047,-0.18842 -44.61645,6.71579 -60.30004,21.38067c-15.55315,14.54296 -24.09757,35.909 -33.00607,57.96545l-0.00002,0.00001z" fill="currentColor"/>
</svg>
