<svg xmlns="http://www.w3.org/2000/svg" viewBox="0 0 100 100">
  <path d="M62.12 20.34c-3.93 9.72-8.06 20.02-12.08 30.05-4.02-10.03-8.15-20.34-12.07-30.05-1.12-2.76-2.19-5.42-4.13-7.24a10.82 10.82 0 0 0-7.53-2.67c-2.79.02-5.49.93-7.6 2.67a11.87 11.87 0 0 0-4.1 7.24L9.38 50.37a7.72 7.72 0 0 0-7.1 2.55C.3 55.2-.25 58.47.46 61.95l4.59 22.58a65.33 65.33 0 0 1 9.28-7.65 61 61 0 0 1 9.8-5.4l4.3-27.17 7.02 23.35a60.9 60.9 0 0 1 29.21.12l7-23.47 4.3 27.17c3.4 1.5 6.64 3.32 9.7 5.4a66.74 66.74 0 0 1 9.29 7.65l4.68-22.58c.72-3.48.16-6.76-1.81-9.03a7.72 7.72 0 0 0-7.12-2.53l-5.23-30.05a11.86 11.86 0 0 0-4.1-7.24 12.14 12.14 0 0 0-7.6-2.67c-2.8-.03-5.57.84-7.53 2.67-1.94 1.82-3 4.48-4.12 7.24Z"/>
</svg>
